<svg xmlns="http://www.w3.org/2000/svg" width="26.676" height="26.676" viewBox="0 0 26.676 26.676">
  <g id="day-sunny" transform="translate(6 2)">
    <path id="Trazado_270" data-name="Trazado 270" d="M6.51,2.869A.855.855,0,0,1,7.99,2.012l1.1,1.9a.855.855,0,0,1-1.479.857l-1.1-1.9Zm6.828,2.819a7.651,7.651,0,1,1-5.41,2.241,7.625,7.625,0,0,1,5.41-2.241Zm4.254,3.4a6.016,6.016,0,1,0,1.762,4.254,6,6,0,0,0-1.762-4.254ZM12.658.857a.857.857,0,0,1,1.714,0v2.2a.857.857,0,0,1-1.714,0V.857Zm6.335,1.335a.853.853,0,0,1,1.479.85l-1.1,1.9a.853.853,0,0,1-1.479-.85l1.1-1.9ZM23.807,6.51a.855.855,0,1,1,.857,1.479l-1.9,1.1a.855.855,0,1,1-.857-1.479l1.9-1.1Zm2.012,6.148a.857.857,0,1,1,0,1.714h-2.2a.857.857,0,1,1,0-1.714Zm-1.335,6.335a.853.853,0,0,1-.85,1.479l-1.9-1.1a.853.853,0,0,1,.85-1.479l1.9,1.1Zm-4.318,4.815a.855.855,0,1,1-1.479.857l-1.1-1.9a.855.855,0,0,1,1.479-.857l1.1,1.9Zm-6.148,2.012a.857.857,0,0,1-1.714,0v-2.2a.857.857,0,1,1,1.714,0v2.2ZM7.684,24.484a.853.853,0,0,1-1.479-.85l1.1-1.9a.853.853,0,0,1,1.479.85l-1.1,1.9ZM2.869,20.166a.855.855,0,0,1-.857-1.479l1.9-1.1a.855.855,0,0,1,.857,1.479l-1.9,1.1ZM.857,14.018a.857.857,0,0,1,0-1.714h2.2a.857.857,0,0,1,0,1.714ZM2.192,7.684A.853.853,0,1,1,3.042,6.2l1.9,1.1a.853.853,0,1,1-.85,1.479l-1.9-1.1Z" transform="translate(-6 -2)" fill="#2071b7"/>
  </g>
</svg>