<svg xmlns="http://www.w3.org/2000/svg" width="26.017" height="26.017" viewBox="0 0 26.017 26.017">
  <path id="night-light" d="M13.008,0a1.626,1.626,0,1,0,1.626,1.626A1.629,1.629,0,0,0,13.008,0ZM4.961,3.335a1.626,1.626,0,1,0,1.15.476,1.615,1.615,0,0,0-1.15-.476Zm16.1,0a1.626,1.626,0,1,0,1.15.476,1.615,1.615,0,0,0-1.15-.476ZM13.008,4.878a8.13,8.13,0,1,0,8.13,8.13A8.13,8.13,0,0,0,13.008,4.878Zm0,3.252a5.338,5.338,0,0,1,.9.083,3.252,3.252,0,1,0,3.9,3.9,5.278,5.278,0,0,1,.083.9A4.878,4.878,0,1,1,13.008,8.13ZM1.626,11.382a1.626,1.626,0,1,0,1.626,1.626A1.629,1.629,0,0,0,1.626,11.382Zm22.765,0a1.626,1.626,0,1,0,1.626,1.626A1.629,1.629,0,0,0,24.391,11.382ZM4.961,19.43a1.626,1.626,0,1,0,1.15.476,1.615,1.615,0,0,0-1.15-.476Zm16.1,0a1.626,1.626,0,1,0,1.15.476,1.615,1.615,0,0,0-1.15-.476Zm-8.048,3.335a1.626,1.626,0,1,0,1.626,1.626A1.629,1.629,0,0,0,13.008,22.765Zm0,0" fill="#b0b0b0" opacity="0.5"/>
</svg>